solid OpenSCAD_Model
  facet normal -1 0 0
    outer loop
      vertex -22.5 -6.5 0
      vertex -22.5 16.5 23
      vertex -22.5 16.5 0
    endloop
  endfacet
  facet normal -1 -0 0
    outer loop
      vertex -22.5 16.5 23
      vertex -22.5 -6.5 0
      vertex -22.5 -6.5 23
    endloop
  endfacet
  facet normal 0 0 1
    outer loop
      vertex 52 23 23
      vertex 38 12 23
      vertex 52 12 23
    endloop
  endfacet
  facet normal 0 0 1
    outer loop
      vertex 35 12 23
      vertex 38 12 23
      vertex 35 23 23
    endloop
  endfacet
  facet normal -0 0 1
    outer loop
      vertex 35 23 23
      vertex 38 12 23
      vertex 52 23 23
    endloop
  endfacet
  facet normal -0 0 1
    outer loop
      vertex 38 0 23
      vertex 52 -11 23
      vertex 52 0 23
    endloop
  endfacet
  facet normal 0 0 1
    outer loop
      vertex 38 12 23
      vertex 35 12 23
      vertex 38 0 23
    endloop
  endfacet
  facet normal 0 0 1
    outer loop
      vertex 35 0 23
      vertex 38 0 23
      vertex 35 12 23
    endloop
  endfacet
  facet normal 0 0 1
    outer loop
      vertex 35 -11 23
      vertex 38 0 23
      vertex 35 0 23
    endloop
  endfacet
  facet normal 0 0 1
    outer loop
      vertex 38 0 23
      vertex 35 -11 23
      vertex 52 -11 23
    endloop
  endfacet
  facet normal -0 0 1
    outer loop
      vertex -22.5 16.5 23
      vertex 0.5 12 23
      vertex 0.5 16.5 23
    endloop
  endfacet
  facet normal 0 0 1
    outer loop
      vertex 0.5 12 23
      vertex -22.5 16.5 23
      vertex 0.5 0 23
    endloop
  endfacet
  facet normal 0 0 1
    outer loop
      vertex -22.5 -6.5 23
      vertex 0.5 0 23
      vertex -22.5 16.5 23
    endloop
  endfacet
  facet normal 0 0 1
    outer loop
      vertex 0.5 0 23
      vertex -22.5 -6.5 23
      vertex 0.5 -6.5 23
    endloop
  endfacet
  facet normal -0 0 1
    outer loop
      vertex 0.5 12 23
      vertex 35 0 23
      vertex 35 12 23
    endloop
  endfacet
  facet normal 0 0 1
    outer loop
      vertex 35 0 23
      vertex 0.5 12 23
      vertex 0.5 0 23
    endloop
  endfacet
  facet normal 1 -0 0
    outer loop
      vertex 0.5 -6.5 23
      vertex 0.5 0 0
      vertex 0.5 0 23
    endloop
  endfacet
  facet normal 1 0 0
    outer loop
      vertex 0.5 0 0
      vertex 0.5 -6.5 23
      vertex 0.5 -6.5 0
    endloop
  endfacet
  facet normal 1 -0 0
    outer loop
      vertex 0.5 12 23
      vertex 0.5 16.5 0
      vertex 0.5 16.5 23
    endloop
  endfacet
  facet normal 1 0 0
    outer loop
      vertex 0.5 16.5 0
      vertex 0.5 12 23
      vertex 0.5 12 0
    endloop
  endfacet
  facet normal 0 1 -0
    outer loop
      vertex 0.5 16.5 0
      vertex -22.5 16.5 23
      vertex 0.5 16.5 23
    endloop
  endfacet
  facet normal 0 1 0
    outer loop
      vertex -22.5 16.5 23
      vertex 0.5 16.5 0
      vertex -22.5 16.5 0
    endloop
  endfacet
  facet normal 0 0 -1
    outer loop
      vertex 52 -11 0
      vertex 38 0 0
      vertex 52 0 0
    endloop
  endfacet
  facet normal 0 0 -1
    outer loop
      vertex 35 0 0
      vertex 38 0 0
      vertex 35 -11 0
    endloop
  endfacet
  facet normal 0 0 -1
    outer loop
      vertex 35 -11 0
      vertex 38 0 0
      vertex 52 -11 0
    endloop
  endfacet
  facet normal 0 0 -1
    outer loop
      vertex 38 12 0
      vertex 52 23 0
      vertex 52 12 0
    endloop
  endfacet
  facet normal 0 0 -1
    outer loop
      vertex 38 0 0
      vertex 35 0 0
      vertex 38 12 0
    endloop
  endfacet
  facet normal 0 0 -1
    outer loop
      vertex 35 12 0
      vertex 38 12 0
      vertex 35 0 0
    endloop
  endfacet
  facet normal 0 0 -1
    outer loop
      vertex 35 23 0
      vertex 38 12 0
      vertex 35 12 0
    endloop
  endfacet
  facet normal 0 0 -1
    outer loop
      vertex 38 12 0
      vertex 35 23 0
      vertex 52 23 0
    endloop
  endfacet
  facet normal 0 0 -1
    outer loop
      vertex -22.5 -6.5 0
      vertex 0.5 0 0
      vertex 0.5 -6.5 0
    endloop
  endfacet
  facet normal 0 0 -1
    outer loop
      vertex -22.5 16.5 0
      vertex 0.5 0 0
      vertex -22.5 -6.5 0
    endloop
  endfacet
  facet normal 0 0 -1
    outer loop
      vertex 0.5 0 0
      vertex -22.5 16.5 0
      vertex 0.5 12 0
    endloop
  endfacet
  facet normal 0 0 -1
    outer loop
      vertex 0.5 12 0
      vertex -22.5 16.5 0
      vertex 0.5 16.5 0
    endloop
  endfacet
  facet normal 0 0 -1
    outer loop
      vertex 0.5 0 0
      vertex 35 12 0
      vertex 35 0 0
    endloop
  endfacet
  facet normal -0 0 -1
    outer loop
      vertex 35 12 0
      vertex 0.5 0 0
      vertex 0.5 12 0
    endloop
  endfacet
  facet normal 0 -1 0
    outer loop
      vertex -11 -6.5 8.5
      vertex -8.5 -6.5 5.5
      vertex -8.5 -6.5 8.5
    endloop
  endfacet
  facet normal 0 -1 0
    outer loop
      vertex 0.5 -6.5 0
      vertex -8.5 -6.5 5.5
      vertex -11 -6.5 3
    endloop
  endfacet
  facet normal 0 -1 0
    outer loop
      vertex -11 -6.5 3
      vertex -8.5 -6.5 5.5
      vertex -11 -6.5 8.5
    endloop
  endfacet
  facet normal 0 -1 0
    outer loop
      vertex -3 -6.5 14
      vertex -3 -6.5 8.5
      vertex -1 -6.5 14
    endloop
  endfacet
  facet normal 0 -1 0
    outer loop
      vertex -11 -6.5 14.5
      vertex -8.5 -6.5 17
      vertex -11 -6.5 20
    endloop
  endfacet
  facet normal 0 -1 -0
    outer loop
      vertex -8.5 -6.5 17
      vertex -11 -6.5 14.5
      vertex -8.5 -6.5 14.5
    endloop
  endfacet
  facet normal 0 -1 0
    outer loop
      vertex -11 -6.5 20
      vertex -22.5 -6.5 23
      vertex -17 -6.5 20
    endloop
  endfacet
  facet normal 0 -1 0
    outer loop
      vertex -22.5 -6.5 23
      vertex -17 -6.5 14
      vertex -17 -6.5 20
    endloop
  endfacet
  facet normal 0 -1 0
    outer loop
      vertex -17 -6.5 14
      vertex -17 -6.5 9
      vertex -11 -6.5 14
    endloop
  endfacet
  facet normal 0 -1 0
    outer loop
      vertex -22.5 -6.5 23
      vertex -17 -6.5 9
      vertex -17 -6.5 14
    endloop
  endfacet
  facet normal 0 -1 0
    outer loop
      vertex -22.5 -6.5 0
      vertex -17 -6.5 9
      vertex -22.5 -6.5 23
    endloop
  endfacet
  facet normal 0 -1 -0
    outer loop
      vertex -17 -6.5 3
      vertex -22.5 -6.5 0
      vertex -11 -6.5 3
    endloop
  endfacet
  facet normal 0 -1 -0
    outer loop
      vertex -17 -6.5 9
      vertex -22.5 -6.5 0
      vertex -17 -6.5 3
    endloop
  endfacet
  facet normal 0 -1 0
    outer loop
      vertex -22.5 -6.5 23
      vertex -11 -6.5 20
      vertex 0.5 -6.5 23
    endloop
  endfacet
  facet normal 0 -1 0
    outer loop
      vertex -8.5 -6.5 17
      vertex 0.5 -6.5 23
      vertex -11 -6.5 20
    endloop
  endfacet
  facet normal 0 -1 0
    outer loop
      vertex -1 -6.5 17
      vertex 0.5 -6.5 23
      vertex -8.5 -6.5 17
    endloop
  endfacet
  facet normal 0 -1 0
    outer loop
      vertex -1 -6.5 14
      vertex 0.5 -6.5 23
      vertex -1 -6.5 17
    endloop
  endfacet
  facet normal 0 -1 0
    outer loop
      vertex -1 -6.5 8.5
      vertex -1 -6.5 14
      vertex -3 -6.5 8.5
    endloop
  endfacet
  facet normal 0 -1 0
    outer loop
      vertex -1 -6.5 8.5
      vertex 0.5 -6.5 23
      vertex -1 -6.5 14
    endloop
  endfacet
  facet normal 0 -1 0
    outer loop
      vertex 0.5 -6.5 0
      vertex -1 -6.5 8.5
      vertex -1 -6.5 5.5
    endloop
  endfacet
  facet normal 0 -1 0
    outer loop
      vertex 0.5 -6.5 0
      vertex -11 -6.5 3
      vertex -22.5 -6.5 0
    endloop
  endfacet
  facet normal 0 -1 0
    outer loop
      vertex -1 -6.5 8.5
      vertex 0.5 -6.5 0
      vertex 0.5 -6.5 23
    endloop
  endfacet
  facet normal 0 -1 0
    outer loop
      vertex -8.5 -6.5 5.5
      vertex 0.5 -6.5 0
      vertex -1 -6.5 5.5
    endloop
  endfacet
  facet normal 0 -1 -0
    outer loop
      vertex -11 -6.5 14
      vertex -17 -6.5 9
      vertex -11 -6.5 9
    endloop
  endfacet
  facet normal 1 -0 0
    outer loop
      vertex -8.5 -6.5 17
      vertex -8.5 -1 14.5
      vertex -8.5 -1 17
    endloop
  endfacet
  facet normal 1 0 0
    outer loop
      vertex -8.5 -1 14.5
      vertex -8.5 -6.5 17
      vertex -8.5 -6.5 14.5
    endloop
  endfacet
  facet normal 0 0 -1
    outer loop
      vertex -8.5 -6.5 17
      vertex -1 -1 17
      vertex -1 -6.5 17
    endloop
  endfacet
  facet normal -0 0 -1
    outer loop
      vertex -1 -1 17
      vertex -8.5 -6.5 17
      vertex -8.5 -1 17
    endloop
  endfacet
  facet normal -1 0 0
    outer loop
      vertex -1 -6.5 14
      vertex -1 -1 17
      vertex -1 -1 14
    endloop
  endfacet
  facet normal -1 -0 0
    outer loop
      vertex -1 -1 17
      vertex -1 -6.5 14
      vertex -1 -6.5 17
    endloop
  endfacet
  facet normal 0 -1 0
    outer loop
      vertex -14 -1 6
      vertex -11 -1 9
      vertex -17 -1 9
    endloop
  endfacet
  facet normal 0 -1 0
    outer loop
      vertex -14 -1 6
      vertex -17 -1 9
      vertex -17 -1 6
    endloop
  endfacet
  facet normal 0 -1 -0
    outer loop
      vertex -11 -1 9
      vertex -14 -1 6
      vertex -11 -1 8.5
    endloop
  endfacet
  facet normal 0 -1 0
    outer loop
      vertex -11 -1 3
      vertex -14 -1 6
      vertex -14 -1 3
    endloop
  endfacet
  facet normal 0 -1 0
    outer loop
      vertex -14 -1 6
      vertex -11 -1 3
      vertex -11 -1 8.5
    endloop
  endfacet
  facet normal 0 -1 0
    outer loop
      vertex -17 -1 14
      vertex -14 -1 17.5
      vertex -17 -1 17.5
    endloop
  endfacet
  facet normal 0 -1 0
    outer loop
      vertex -11 -1 14
      vertex -11 -1 14.5
      vertex -17 -1 14
    endloop
  endfacet
  facet normal 0 -1 -0
    outer loop
      vertex -14 -1 17.5
      vertex -17 -1 14
      vertex -11 -1 14.5
    endloop
  endfacet
  facet normal 0 -1 0
    outer loop
      vertex -14 -1 17.5
      vertex -11 -1 20
      vertex -14 -1 20
    endloop
  endfacet
  facet normal 0 -1 -0
    outer loop
      vertex -11 -1 20
      vertex -14 -1 17.5
      vertex -11 -1 14.5
    endloop
  endfacet
  facet normal 0 -1 0
    outer loop
      vertex -3 -1 14
      vertex -8.5 -1 17
      vertex -8.5 -1 14.5
    endloop
  endfacet
  facet normal 0 -1 0
    outer loop
      vertex -11 -1 14.5
      vertex -11 -1 14
      vertex -8.5 -1 14.5
    endloop
  endfacet
  facet normal 0 -1 0
    outer loop
      vertex -8.5 -1 8.5
      vertex -8.5 -1 14.5
      vertex -11 -1 14
    endloop
  endfacet
  facet normal 0 -1 0
    outer loop
      vertex -8.5 -1 17
      vertex -3 -1 14
      vertex -1 -1 17
    endloop
  endfacet
  facet normal 0 -1 -0
    outer loop
      vertex -1 -1 17
      vertex -3 -1 14
      vertex -1 -1 14
    endloop
  endfacet
  facet normal 0 -1 0
    outer loop
      vertex -8.5 -1 8.5
      vertex -11 -1 14
      vertex -11 -1 9
    endloop
  endfacet
  facet normal 0 -1 0
    outer loop
      vertex -8.5 -1 8.5
      vertex -11 -1 9
      vertex -11 -1 8.5
    endloop
  endfacet
  facet normal 0 -1 0
    outer loop
      vertex -8.5 -1 14.5
      vertex -8.5 -1 8.5
      vertex -3 -1 14
    endloop
  endfacet
  facet normal 0 -1 0
    outer loop
      vertex -8.5 -1 8.5
      vertex -3 -1 8.5
      vertex -3 -1 14
    endloop
  endfacet
  facet normal 0 -1 0
    outer loop
      vertex -8.5 -1 5.5
      vertex -3 -1 8.5
      vertex -8.5 -1 8.5
    endloop
  endfacet
  facet normal 0 -1 0
    outer loop
      vertex -1 -1 5.5
      vertex -3 -1 8.5
      vertex -8.5 -1 5.5
    endloop
  endfacet
  facet normal 0 -1 0
    outer loop
      vertex -3 -1 8.5
      vertex -1 -1 5.5
      vertex -1 -1 8.5
    endloop
  endfacet
  facet normal -0 0 1
    outer loop
      vertex -3 -1 14
      vertex -1 -6.5 14
      vertex -1 -1 14
    endloop
  endfacet
  facet normal 0 0 1
    outer loop
      vertex -1 -6.5 14
      vertex -3 -1 14
      vertex -3 -6.5 14
    endloop
  endfacet
  facet normal -1 0 0
    outer loop
      vertex -11 -6.5 14.5
      vertex -11 -1 20
      vertex -11 -1 14.5
    endloop
  endfacet
  facet normal -1 -0 0
    outer loop
      vertex -11 -1 20
      vertex -11 -6.5 14.5
      vertex -11 -6.5 20
    endloop
  endfacet
  facet normal -1 0 0
    outer loop
      vertex -11 -6.5 3
      vertex -11 -1 8.5
      vertex -11 -1 3
    endloop
  endfacet
  facet normal -1 -0 0
    outer loop
      vertex -11 -1 8.5
      vertex -11 -6.5 3
      vertex -11 -6.5 8.5
    endloop
  endfacet
  facet normal 1 -0 0
    outer loop
      vertex -11 -6.5 14
      vertex -11 -1 9
      vertex -11 -1 14
    endloop
  endfacet
  facet normal 1 0 0
    outer loop
      vertex -11 -1 9
      vertex -11 -6.5 14
      vertex -11 -6.5 9
    endloop
  endfacet
  facet normal 0 0 -1
    outer loop
      vertex -11 -6.5 14.5
      vertex -8.5 -1 14.5
      vertex -8.5 -6.5 14.5
    endloop
  endfacet
  facet normal -0 0 -1
    outer loop
      vertex -8.5 -1 14.5
      vertex -11 -6.5 14.5
      vertex -11 -1 14.5
    endloop
  endfacet
  facet normal -1 0 0
    outer loop
      vertex -3 -6.5 8.5
      vertex -3 -1 14
      vertex -3 -1 8.5
    endloop
  endfacet
  facet normal -1 -0 0
    outer loop
      vertex -3 -1 14
      vertex -3 -6.5 8.5
      vertex -3 -6.5 14
    endloop
  endfacet
  facet normal 0 0 -1
    outer loop
      vertex -3 -6.5 8.5
      vertex -1 -1 8.5
      vertex -1 -6.5 8.5
    endloop
  endfacet
  facet normal -0 0 -1
    outer loop
      vertex -1 -1 8.5
      vertex -3 -6.5 8.5
      vertex -3 -1 8.5
    endloop
  endfacet
  facet normal -0 0 1
    outer loop
      vertex -11 -1 8.5
      vertex -8.5 -6.5 8.5
      vertex -8.5 -1 8.5
    endloop
  endfacet
  facet normal 0 0 1
    outer loop
      vertex -8.5 -6.5 8.5
      vertex -11 -1 8.5
      vertex -11 -6.5 8.5
    endloop
  endfacet
  facet normal 1 -0 0
    outer loop
      vertex -8.5 -6.5 8.5
      vertex -8.5 -1 5.5
      vertex -8.5 -1 8.5
    endloop
  endfacet
  facet normal 1 0 0
    outer loop
      vertex -8.5 -1 5.5
      vertex -8.5 -6.5 8.5
      vertex -8.5 -6.5 5.5
    endloop
  endfacet
  facet normal -1 0 0
    outer loop
      vertex -1 -6.5 5.5
      vertex -1 -1 8.5
      vertex -1 -1 5.5
    endloop
  endfacet
  facet normal -1 -0 0
    outer loop
      vertex -1 -1 8.5
      vertex -1 -6.5 5.5
      vertex -1 -6.5 8.5
    endloop
  endfacet
  facet normal -0 0 1
    outer loop
      vertex -8.5 -1 5.5
      vertex -1 -6.5 5.5
      vertex -1 -1 5.5
    endloop
  endfacet
  facet normal 0 0 1
    outer loop
      vertex -1 -6.5 5.5
      vertex -8.5 -1 5.5
      vertex -8.5 -6.5 5.5
    endloop
  endfacet
  facet normal 1 0 0
    outer loop
      vertex -17 -1 9
      vertex -17 -4 6
      vertex -17 -1 6
    endloop
  endfacet
  facet normal 1 -0 0
    outer loop
      vertex -17 -6.5 9
      vertex -17 -4 6
      vertex -17 -1 9
    endloop
  endfacet
  facet normal 1 0 0
    outer loop
      vertex -17 -6.5 3
      vertex -17 -4 6
      vertex -17 -6.5 9
    endloop
  endfacet
  facet normal 1 0 0
    outer loop
      vertex -17 -4 6
      vertex -17 -6.5 3
      vertex -17 -4 3
    endloop
  endfacet
  facet normal 0 0 -1
    outer loop
      vertex -17 -6.5 9
      vertex -11 -1 9
      vertex -11 -6.5 9
    endloop
  endfacet
  facet normal -0 0 -1
    outer loop
      vertex -11 -1 9
      vertex -17 -6.5 9
      vertex -17 -1 9
    endloop
  endfacet
  facet normal 0 0 1
    outer loop
      vertex -14 -4 3
      vertex -11 -1 3
      vertex -14 -1 3
    endloop
  endfacet
  facet normal 0 0 1
    outer loop
      vertex -11 -1 3
      vertex -14 -4 3
      vertex -11 -6.5 3
    endloop
  endfacet
  facet normal 0 0 1
    outer loop
      vertex -17 -6.5 3
      vertex -14 -4 3
      vertex -17 -4 3
    endloop
  endfacet
  facet normal 0 0 1
    outer loop
      vertex -14 -4 3
      vertex -17 -6.5 3
      vertex -11 -6.5 3
    endloop
  endfacet
  facet normal 1 0 0
    outer loop
      vertex -17 -4 20
      vertex -17 -6.5 20
      vertex -17 -4 17.5
    endloop
  endfacet
  facet normal 1 -0 0
    outer loop
      vertex -17 -4 17.5
      vertex -17 -1 14
      vertex -17 -1 17.5
    endloop
  endfacet
  facet normal 1 0 0
    outer loop
      vertex -17 -6.5 14
      vertex -17 -4 17.5
      vertex -17 -6.5 20
    endloop
  endfacet
  facet normal 1 0 0
    outer loop
      vertex -17 -4 17.5
      vertex -17 -6.5 14
      vertex -17 -1 14
    endloop
  endfacet
  facet normal 0 0 -1
    outer loop
      vertex -11 -6.5 20
      vertex -14 -4 20
      vertex -11 -1 20
    endloop
  endfacet
  facet normal 0 0 -1
    outer loop
      vertex -17 -6.5 20
      vertex -14 -4 20
      vertex -11 -6.5 20
    endloop
  endfacet
  facet normal -0 0 -1
    outer loop
      vertex -14 -4 20
      vertex -17 -6.5 20
      vertex -17 -4 20
    endloop
  endfacet
  facet normal -0 0 -1
    outer loop
      vertex -11 -1 20
      vertex -14 -4 20
      vertex -14 -1 20
    endloop
  endfacet
  facet normal -0 0 1
    outer loop
      vertex -17 -1 14
      vertex -11 -6.5 14
      vertex -11 -1 14
    endloop
  endfacet
  facet normal 0 0 1
    outer loop
      vertex -11 -6.5 14
      vertex -17 -1 14
      vertex -17 -6.5 14
    endloop
  endfacet
  facet normal -0 0 1
    outer loop
      vertex -17 -1 6
      vertex -14 -4 6
      vertex -14 -1 6
    endloop
  endfacet
  facet normal 0 0 1
    outer loop
      vertex -14 -4 6
      vertex -17 -1 6
      vertex -17 -4 6
    endloop
  endfacet
  facet normal 1 -0 0
    outer loop
      vertex -14 -4 6
      vertex -14 -1 3
      vertex -14 -1 6
    endloop
  endfacet
  facet normal 1 0 0
    outer loop
      vertex -14 -1 3
      vertex -14 -4 6
      vertex -14 -4 3
    endloop
  endfacet
  facet normal 0 -1 0
    outer loop
      vertex -17 -4 3
      vertex -14 -4 6
      vertex -17 -4 6
    endloop
  endfacet
  facet normal 0 -1 -0
    outer loop
      vertex -14 -4 6
      vertex -17 -4 3
      vertex -14 -4 3
    endloop
  endfacet
  facet normal 1 -0 0
    outer loop
      vertex -14 -4 20
      vertex -14 -1 17.5
      vertex -14 -1 20
    endloop
  endfacet
  facet normal 1 0 0
    outer loop
      vertex -14 -1 17.5
      vertex -14 -4 20
      vertex -14 -4 17.5
    endloop
  endfacet
  facet normal 0 0 -1
    outer loop
      vertex -17 -4 17.5
      vertex -14 -1 17.5
      vertex -14 -4 17.5
    endloop
  endfacet
  facet normal -0 0 -1
    outer loop
      vertex -14 -1 17.5
      vertex -17 -4 17.5
      vertex -17 -1 17.5
    endloop
  endfacet
  facet normal 0 -1 0
    outer loop
      vertex -17 -4 17.5
      vertex -14 -4 20
      vertex -17 -4 20
    endloop
  endfacet
  facet normal 0 -1 -0
    outer loop
      vertex -14 -4 20
      vertex -17 -4 17.5
      vertex -14 -4 17.5
    endloop
  endfacet
  facet normal 1 -0 0
    outer loop
      vertex 38 0 23
      vertex 38 12 0
      vertex 38 12 23
    endloop
  endfacet
  facet normal 1 0 0
    outer loop
      vertex 38 12 0
      vertex 38 0 23
      vertex 38 0 0
    endloop
  endfacet
  facet normal 0 1 -0
    outer loop
      vertex 52 0 0
      vertex 38 0 23
      vertex 52 0 23
    endloop
  endfacet
  facet normal 0 1 0
    outer loop
      vertex 38 0 23
      vertex 52 0 0
      vertex 38 0 0
    endloop
  endfacet
  facet normal 0 -1 0
    outer loop
      vertex 0.5 0 0
      vertex 35 0 23
      vertex 0.5 0 23
    endloop
  endfacet
  facet normal 0 -1 -0
    outer loop
      vertex 35 0 23
      vertex 0.5 0 0
      vertex 35 0 0
    endloop
  endfacet
  facet normal 0 -1 0
    outer loop
      vertex 38 12 0
      vertex 52 12 23
      vertex 38 12 23
    endloop
  endfacet
  facet normal 0 -1 -0
    outer loop
      vertex 52 12 23
      vertex 38 12 0
      vertex 52 12 0
    endloop
  endfacet
  facet normal 0 1 -0
    outer loop
      vertex 35 12 0
      vertex 0.5 12 23
      vertex 35 12 23
    endloop
  endfacet
  facet normal 0 1 0
    outer loop
      vertex 0.5 12 23
      vertex 35 12 0
      vertex 0.5 12 0
    endloop
  endfacet
  facet normal -1 0 0
    outer loop
      vertex 35 12 0
      vertex 35 23 23
      vertex 35 23 0
    endloop
  endfacet
  facet normal -1 -0 0
    outer loop
      vertex 35 23 23
      vertex 35 12 0
      vertex 35 12 23
    endloop
  endfacet
  facet normal 1 -0 0
    outer loop
      vertex 52 12 23
      vertex 52 23 0
      vertex 52 23 23
    endloop
  endfacet
  facet normal 1 0 0
    outer loop
      vertex 52 23 0
      vertex 52 12 23
      vertex 52 12 0
    endloop
  endfacet
  facet normal 0 1 -0
    outer loop
      vertex 52 23 0
      vertex 35 23 23
      vertex 52 23 23
    endloop
  endfacet
  facet normal 0 1 0
    outer loop
      vertex 35 23 23
      vertex 52 23 0
      vertex 35 23 0
    endloop
  endfacet
  facet normal -1 0 0
    outer loop
      vertex 35 -11 0
      vertex 35 0 23
      vertex 35 0 0
    endloop
  endfacet
  facet normal -1 -0 0
    outer loop
      vertex 35 0 23
      vertex 35 -11 0
      vertex 35 -11 23
    endloop
  endfacet
  facet normal 1 -0 0
    outer loop
      vertex 52 -11 23
      vertex 52 0 0
      vertex 52 0 23
    endloop
  endfacet
  facet normal 1 0 0
    outer loop
      vertex 52 0 0
      vertex 52 -11 23
      vertex 52 -11 0
    endloop
  endfacet
  facet normal 0 -1 0
    outer loop
      vertex 35 -11 0
      vertex 52 -11 23
      vertex 35 -11 23
    endloop
  endfacet
  facet normal 0 -1 -0
    outer loop
      vertex 52 -11 23
      vertex 35 -11 0
      vertex 52 -11 0
    endloop
  endfacet
endsolid OpenSCAD_Model
